REM DIRINDEX 1\2,1\3,1\4,1\5,1\6,1\7,1\8
REM DIRNAME cjc150,folder01,folder02,folder03,folder04,folder05,folder06,folder07
TITLE ""
FILE "003 ‚Å‚é•¶63.mp3" MP3
  TRACK 01 AUDIO
    TITLE "8:cjc150_3003"
    INDEX 01 00:00:00
  TRACK 02 AUDIO
    TITLE "0:"
    INDEX 01 00:01:62
  TRACK 03 AUDIO
    TITLE "2:cjc150_3004"
    INDEX 01 00:02:47
  TRACK 04 AUDIO
    TITLE "0:"
    INDEX 01 00:09:22
  TRACK 05 AUDIO
    TITLE "8:cjc150_3005"
    INDEX 01 00:10:53
  TRACK 06 AUDIO
    TITLE "0:"
    INDEX 01 00:13:32
  TRACK 07 AUDIO
    TITLE "3:cjc150_3006"
    INDEX 01 00:14:21
  TRACK 08 AUDIO
    TITLE "3:cjc150_3007"
    INDEX 01 00:16:53
  TRACK 09 AUDIO
    TITLE "3:cjc150_3008"
    INDEX 01 00:19:15
  TRACK 10 AUDIO
    TITLE "3:cjc150_3009"
    INDEX 01 00:20:55
  TRACK 11 AUDIO
    TITLE "3:cjc150_3010"
    INDEX 01 00:22:17
  TRACK 12 AUDIO
    TITLE "3:cjc150_3011"
    INDEX 01 00:24:24
  TRACK 13 AUDIO
    TITLE "3:cjc150_3012"
    INDEX 01 00:26:24
  TRACK 14 AUDIO
    TITLE "3:cjc150_3013"
    INDEX 01 00:28:49
  TRACK 15 AUDIO
    TITLE "8:cjc150_3014"
    INDEX 01 00:31:02
  TRACK 16 AUDIO
    TITLE "0:"
    INDEX 01 00:33:54
  TRACK 17 AUDIO
    TITLE "4:cjc150_3015"
    INDEX 01 00:34:43
  TRACK 18 AUDIO
    TITLE "4:cjc150_3016"
    INDEX 01 00:36:68
  TRACK 19 AUDIO
    TITLE "4:cjc150_3017"
    INDEX 01 00:39:64
  TRACK 20 AUDIO
    TITLE "4:cjc150_3018"
    INDEX 01 00:42:51
  TRACK 21 AUDIO
    TITLE "4:cjc150_3019"
    INDEX 01 00:46:00
  TRACK 22 AUDIO
    TITLE "4:cjc150_3020"
    INDEX 01 00:48:12
  TRACK 23 AUDIO
    TITLE "8:cjc150_3021"
    INDEX 01 00:51:11
  TRACK 24 AUDIO
    TITLE "0:"
    INDEX 01 00:54:05
  TRACK 25 AUDIO
    TITLE "5:cjc150_3022"
    INDEX 01 00:54:58
  TRACK 26 AUDIO
    TITLE "5:cjc150_3023"
    INDEX 01 00:58:52
  TRACK 27 AUDIO
    TITLE "5:cjc150_3024"
    INDEX 01 01:01:74
  TRACK 28 AUDIO
    TITLE "5:cjc150_3025"
    INDEX 01 01:04:33
  TRACK 29 AUDIO
    TITLE "5:cjc150_3026"
    INDEX 01 01:06:63
  TRACK 30 AUDIO
    TITLE "5:cjc150_3027"
    INDEX 01 01:08:42
  TRACK 31 AUDIO
    TITLE "5:cjc150_3028"
    INDEX 01 01:10:02
  TRACK 32 AUDIO
    TITLE "5:cjc150_3029"
    INDEX 01 01:11:45
  TRACK 33 AUDIO
    TITLE "5:cjc150_3030"
    INDEX 01 01:13:04
  TRACK 34 AUDIO
    TITLE "5:cjc150_3031"
    INDEX 01 01:14:35
  TRACK 35 AUDIO
    TITLE "5:cjc150_3032"
    INDEX 01 01:17:26
  TRACK 36 AUDIO
    TITLE "5:cjc150_3033"
    INDEX 01 01:19:30
  TRACK 37 AUDIO
    TITLE "5:cjc150_3034"
    INDEX 01 01:21:20
  TRACK 38 AUDIO
    TITLE "5:cjc150_3035"
    INDEX 01 01:23:56
  TRACK 39 AUDIO
    TITLE "5:cjc150_3036"
    INDEX 01 01:26:70
  TRACK 40 AUDIO
    TITLE "5:cjc150_3037"
    INDEX 01 01:29:23
  TRACK 41 AUDIO
    TITLE "8:cjc150_3038"
    INDEX 01 01:31:45
  TRACK 42 AUDIO
    TITLE "0:"
    INDEX 01 01:34:26
  TRACK 43 AUDIO
    TITLE "6:cjc150_3039"
    INDEX 01 01:35:10
  TRACK 44 AUDIO
    TITLE "6:cjc150_3040"
    INDEX 01 01:39:19
  TRACK 45 AUDIO
    TITLE "6:cjc150_3041"
    INDEX 01 01:42:41
  TRACK 46 AUDIO
    TITLE "6:cjc150_3042"
    INDEX 01 01:44:73
  TRACK 47 AUDIO
    TITLE "6:cjc150_3043"
    INDEX 01 01:47:31
  TRACK 48 AUDIO
    TITLE "6:cjc150_3044"
    INDEX 01 01:49:71
  TRACK 49 AUDIO
    TITLE "6:cjc150_3045"
    INDEX 01 01:53:45
  TRACK 50 AUDIO
    TITLE "6:cjc150_3046"
    INDEX 01 01:56:32
  TRACK 51 AUDIO
    TITLE "6:cjc150_3047"
    INDEX 01 01:59:16
  TRACK 52 AUDIO
    TITLE "6:cjc150_3048"
    INDEX 01 02:01:48
  TRACK 53 AUDIO
    TITLE "6:cjc150_3049"
    INDEX 01 02:04:59
  TRACK 54 AUDIO
    TITLE "6:cjc150_3050"
    INDEX 01 02:07:08
  TRACK 55 AUDIO
    TITLE "8:cjc150_3051"
    INDEX 01 02:08:54
  TRACK 56 AUDIO
    TITLE "0:"
    INDEX 01 02:10:32
  TRACK 57 AUDIO
    TITLE "7:cjc150_3052"
    INDEX 01 02:11:12
  TRACK 58 AUDIO
    TITLE "7:cjc150_3053"
    INDEX 01 02:17:57
  TRACK 59 AUDIO
    TITLE "0:"
    INDEX 01 02:24:20
